<svg width="24" height="25" viewBox="0 0 24 25" fill="none" xmlns="http://www.w3.org/2000/svg">
<path d="M6.49959 6.1519C7.86945 4.96083 9.58961 4.24774 11.4004 4.1203V5.8999C11.4004 6.05903 11.4636 6.21164 11.5761 6.32417C11.6886 6.43669 11.8413 6.4999 12.0004 6.4999C12.1595 6.4999 12.3121 6.43669 12.4247 6.32417C12.5372 6.21164 12.6004 6.05903 12.6004 5.8999V4.1215C14.5126 4.25793 16.3206 5.04434 17.7242 6.35012C19.1278 7.65591 20.0425 9.40251 20.3164 11.2999H18.0004C17.8413 11.2999 17.6886 11.3631 17.5761 11.4756C17.4636 11.5882 17.4004 11.7408 17.4004 11.8999C17.4004 12.059 17.4636 12.2116 17.5761 12.3242C17.6886 12.4367 17.8413 12.4999 18.0004 12.4999H20.4004C20.399 13.6594 20.1633 14.8067 19.7073 15.8728C19.2514 16.939 18.5847 17.9019 17.7472 18.7039C17.6369 18.8143 17.574 18.9634 17.5718 19.1194C17.5695 19.2754 17.6282 19.4262 17.7353 19.5397C17.8424 19.6532 17.9895 19.7205 18.1454 19.7273C18.3013 19.7342 18.4538 19.68 18.5704 19.5763C19.5268 18.6622 20.2882 17.5641 20.809 16.3479C21.3297 15.1318 21.5989 13.8228 21.6004 12.4999C21.6004 9.95382 20.589 7.51203 18.7886 5.71168C16.9883 3.91133 14.5465 2.8999 12.0004 2.8999C9.45431 2.8999 7.01252 3.91133 5.21217 5.71168C3.41182 7.51203 2.40039 9.95382 2.40039 12.4999C2.40039 15.2539 3.62439 17.8279 5.47599 19.5763C5.53335 19.6304 5.6008 19.6726 5.67448 19.7006C5.74816 19.7286 5.82663 19.7418 5.90541 19.7394C5.98419 19.7371 6.06174 19.7192 6.13363 19.6869C6.20552 19.6546 6.27034 19.6085 6.32439 19.5511C6.37844 19.4937 6.42067 19.4263 6.44865 19.3526C6.47664 19.2789 6.48984 19.2005 6.4875 19.1217C6.48516 19.0429 6.46733 18.9654 6.43502 18.8935C6.40271 18.8216 6.35655 18.7568 6.29919 18.7027C4.67439 17.1679 3.60039 14.9035 3.60039 12.4999H6.00039C6.15952 12.4999 6.31213 12.4367 6.42465 12.3242C6.53718 12.2116 6.60039 12.059 6.60039 11.8999C6.60039 11.7408 6.53718 11.5882 6.42465 11.4756C6.31213 11.3631 6.15952 11.2999 6.00039 11.2999H3.68439C3.91317 9.70724 4.59648 8.21437 5.65239 7.0003L7.37559 8.7247C7.48825 8.83737 7.64106 8.90066 7.80039 8.90066C7.95972 8.90066 8.11253 8.83737 8.22519 8.7247C8.33785 8.61204 8.40115 8.45923 8.40115 8.2999C8.40115 8.14057 8.33785 7.98777 8.22519 7.8751L6.49959 6.1519ZM16.1392 7.4683C16.2482 7.3817 16.384 7.33572 16.5232 7.33825C16.6625 7.34077 16.7965 7.39165 16.9023 7.48216C17.0082 7.57267 17.0792 7.69717 17.1033 7.83432C17.1274 7.97148 17.103 8.11274 17.0344 8.2339L16.9024 8.4691C16.4198 9.32123 15.9342 10.1716 15.4456 11.0203C15.0549 11.6994 14.6589 12.3754 14.2576 13.0483C14.1072 13.3014 13.9536 13.5527 13.7968 13.8019C13.6768 13.9903 13.5592 14.1691 13.4728 14.2699C13.1628 14.633 12.7213 14.8582 12.2453 14.8957C11.7693 14.9333 11.2979 14.7803 10.9348 14.4703C10.5717 14.1603 10.3465 13.7188 10.309 13.2428C10.2714 12.7668 10.4244 12.2954 10.7344 11.9323C10.8208 11.8315 10.978 11.6863 11.146 11.5387C11.326 11.3791 11.5576 11.1835 11.818 10.9639C12.3412 10.5271 12.9964 9.9919 13.636 9.4759C14.3974 8.85993 15.1615 8.24713 15.928 7.6375L16.1392 7.4683Z" fill="#6600CC"/>
</svg>
