<svg width="18" height="18" viewBox="0 0 18 18" fill="none" xmlns="http://www.w3.org/2000/svg">
<path fill-rule="evenodd" clip-rule="evenodd" d="M9 18C13.9706 18 18 13.9706 18 9C18 4.02944 13.9706 0 9 0C4.02944 0 0 4.02944 0 9C0 13.9706 4.02944 18 9 18ZM4.75734 4.75738C5.14787 4.36685 5.78103 4.36685 6.17156 4.75738L8.99996 7.58578L11.8284 4.75736C12.2189 4.36683 12.8521 4.36683 13.2426 4.75736C13.6331 5.14788 13.6331 5.78105 13.2426 6.17157L10.4142 8.99999L13.2426 11.8284C13.6331 12.219 13.6331 12.8521 13.2426 13.2427C12.8521 13.6332 12.2189 13.6332 11.8284 13.2427L8.99996 10.4142L6.17152 13.2426C5.781 13.6332 5.14783 13.6332 4.75731 13.2426C4.36679 12.8521 4.36679 12.2189 4.75731 11.8284L7.58574 8.99999L4.75734 6.17159C4.36682 5.78107 4.36682 5.1479 4.75734 4.75738Z" fill="white"/>
<path fill-rule="evenodd" clip-rule="evenodd" d="M9 18C13.9706 18 18 13.9706 18 9C18 4.02944 13.9706 0 9 0C4.02944 0 0 4.02944 0 9C0 13.9706 4.02944 18 9 18ZM4.75734 4.75738C5.14787 4.36685 5.78103 4.36685 6.17156 4.75738L8.99996 7.58578L11.8284 4.75736C12.2189 4.36683 12.8521 4.36683 13.2426 4.75736C13.6331 5.14788 13.6331 5.78105 13.2426 6.17157L10.4142 8.99999L13.2426 11.8284C13.6331 12.219 13.6331 12.8521 13.2426 13.2427C12.8521 13.6332 12.2189 13.6332 11.8284 13.2427L8.99996 10.4142L6.17152 13.2426C5.781 13.6332 5.14783 13.6332 4.75731 13.2426C4.36679 12.8521 4.36679 12.2189 4.75731 11.8284L7.58574 8.99999L4.75734 6.17159C4.36682 5.78107 4.36682 5.1479 4.75734 4.75738Z" fill="#171717" fill-opacity="0.6"/>
</svg>
