<svg width="24" height="25" viewBox="0 0 24 25" fill="none" xmlns="http://www.w3.org/2000/svg">
<path d="M20.1725 7.25014H18.3115L13.7455 11.8141C13.9027 12.2149 13.9172 12.6577 13.7864 13.0679C13.6557 13.478 13.3876 13.8307 13.0274 14.0665C12.6672 14.3024 12.2368 14.407 11.8085 14.3627C11.3803 14.3185 10.9803 14.1282 10.6758 13.8238C10.3714 13.5193 10.1811 13.1194 10.1369 12.6911C10.0927 12.2628 10.1973 11.8324 10.4331 11.4722C10.6689 11.112 11.0216 10.844 11.4318 10.7132C11.842 10.5824 12.2847 10.5969 12.6855 10.7541L17.2505 6.18914V4.32814C17.2506 4.07912 17.3495 3.84031 17.5255 3.66414L19.2555 1.93414C19.2875 1.90192 19.3277 1.87903 19.3717 1.86793C19.4158 1.85683 19.462 1.85794 19.5055 1.87114C19.5945 1.89714 19.6605 1.97114 19.6785 2.06214L20.1385 4.36314L22.4385 4.82314C22.5285 4.84114 22.6025 4.90714 22.6285 4.99614C22.6416 5.03938 22.6428 5.08536 22.6319 5.1292C22.6209 5.17305 22.5983 5.21311 22.5665 5.24514L20.8355 6.97514C20.6595 7.1509 20.4211 7.24978 20.1725 7.25014Z" fill="#6600CC"/>
<path d="M2.625 12.5C2.625 14.9864 3.61272 17.371 5.37087 19.1291C7.12903 20.8873 9.5136 21.875 12 21.875C13.2311 21.875 14.4502 21.6325 15.5877 21.1614C16.7251 20.6902 17.7586 19.9997 18.6291 19.1291C19.4997 18.2586 20.1902 17.2251 20.6614 16.0877C21.1325 14.9502 21.375 13.7311 21.375 12.5C21.375 11.602 21.249 10.734 21.014 9.91301C20.9673 9.7245 20.9955 9.52522 21.0928 9.3571C21.19 9.18899 21.3487 9.06515 21.5353 9.01164C21.722 8.95813 21.9222 8.97913 22.0937 9.07021C22.2653 9.1613 22.3948 9.31537 22.455 9.50001C22.729 10.454 22.875 11.46 22.875 12.5C22.875 18.506 18.006 23.375 12 23.375C5.994 23.375 1.125 18.506 1.125 12.5C1.125 6.49401 5.994 1.62501 12 1.62501C13.015 1.62401 14.024 1.76501 15 2.04401C15.0952 2.0707 15.1841 2.11594 15.2617 2.17713C15.3393 2.23831 15.4041 2.31423 15.4523 2.40053C15.5005 2.48683 15.5311 2.5818 15.5425 2.67998C15.5538 2.77816 15.5457 2.87762 15.5184 2.97264C15.4912 3.06765 15.4455 3.15635 15.3839 3.23364C15.3223 3.31092 15.246 3.37527 15.1595 3.42297C15.0729 3.47068 14.9778 3.50081 14.8795 3.51163C14.7813 3.52244 14.6819 3.51374 14.587 3.48601C13.7457 3.24586 12.8749 3.12436 12 3.12501C9.5136 3.12501 7.12903 4.11273 5.37087 5.87088C3.61272 7.62903 2.625 10.0136 2.625 12.5Z" fill="#6600CC"/>
<path d="M7.12572 12.4998C7.12851 13.1621 7.26626 13.8169 7.53057 14.4242C7.79487 15.0315 8.18018 15.5786 8.66297 16.032C9.14576 16.4855 9.71589 16.8357 10.3386 17.0615C10.9612 17.2872 11.6234 17.3836 12.2846 17.3449C12.9458 17.3062 13.5922 17.1331 14.1842 16.8363C14.7763 16.5394 15.3017 16.125 15.7282 15.6183C16.1548 15.1116 16.4736 14.5233 16.6652 13.8893C16.8569 13.2553 16.9172 12.5889 16.8427 11.9308C16.8217 11.7975 16.8372 11.661 16.8874 11.5358C16.9377 11.4106 17.0209 11.3013 17.1282 11.2195C17.2355 11.1377 17.3629 11.0864 17.497 11.0712C17.6311 11.0559 17.7668 11.0772 17.8897 11.1328C18.1407 11.2448 18.3097 11.4838 18.3317 11.7578C18.487 13.073 18.2286 14.404 17.5926 15.5656C16.9566 16.7273 15.9744 17.6619 14.7827 18.2396C13.591 18.8174 12.2488 19.0095 10.9429 18.7892C9.63697 18.569 8.43208 17.9474 7.49572 17.0108C6.55961 16.0752 5.93785 14.8715 5.71664 13.5667C5.49544 12.2618 5.68578 10.9204 6.26124 9.72863C6.83671 8.53681 7.76879 7.55361 8.9282 6.91538C10.0876 6.27714 11.4169 6.01552 12.7317 6.16679C12.8311 6.17601 12.9277 6.20498 13.0157 6.25201C13.1038 6.29903 13.1816 6.36315 13.2445 6.44063C13.3075 6.5181 13.3543 6.60736 13.3823 6.70317C13.4103 6.79898 13.4189 6.89942 13.4076 6.9986C13.3963 7.09778 13.3653 7.1937 13.3164 7.28075C13.2675 7.36779 13.2018 7.4442 13.123 7.5055C13.0442 7.5668 12.954 7.61176 12.8576 7.63774C12.7612 7.66372 12.6606 7.67019 12.5617 7.65679C11.8787 7.57783 11.1868 7.64419 10.5313 7.85153C9.87577 8.05886 9.27151 8.40247 8.75817 8.85982C8.24482 9.31716 7.834 9.8779 7.55266 10.5052C7.27132 11.1325 7.12582 11.8123 7.12572 12.4998Z" fill="#6600CC"/>
</svg>
