<svg width="20" height="21" viewBox="0 0 20 21" fill="none" xmlns="http://www.w3.org/2000/svg">
<path d="M7.22691 20.5C6.30604 20.5 5.51701 20.1866 4.85984 19.5599C4.20266 18.9331 3.85435 18.1671 3.81492 17.2619C2.78808 17.0832 1.93498 16.6002 1.25562 15.8127C0.576263 15.0235 0.236585 14.1037 0.236585 13.0531C0.236585 12.6797 0.285051 12.3111 0.381985 11.9474C0.478919 11.5836 0.624731 11.2418 0.81942 10.922C0.545869 10.5729 0.340912 10.1848 0.204547 9.75775C0.0681824 9.33233 0 8.88499 0 8.41573C0 7.31727 0.367198 6.36738 1.1016 5.56607C1.83599 4.76475 2.74577 4.30645 3.83094 4.19116C3.81533 4.12865 3.80753 4.06614 3.80753 4.00362V3.79294C3.82149 2.86741 4.15953 2.08721 4.82164 1.45232C5.48375 0.817441 6.2855 0.5 7.22691 0.5C7.82412 0.5 8.33385 0.617315 8.75608 0.851945C9.17914 1.08576 9.59358 1.43 9.99938 1.88464C10.4167 1.43 10.8299 1.08576 11.239 0.851945C11.6481 0.618127 12.159 0.500812 12.7719 0.5C13.6911 0.5 14.4822 0.820283 15.1451 1.46085C15.808 2.1006 16.1465 2.87594 16.1604 3.78685V3.99753C16.1604 4.05924 16.1522 4.12134 16.1358 4.18386C17.2218 4.29996 18.1373 4.75582 18.8824 5.55145C19.6275 6.34708 20 7.30184 20 8.41573C20 8.88418 19.9277 9.33152 19.7831 9.75775C19.6386 10.184 19.4291 10.5721 19.1547 10.922C19.3494 11.2402 19.4993 11.5816 19.6045 11.9461C19.7096 12.3107 19.7622 12.6797 19.7622 13.0531C19.7622 14.1248 19.4213 15.0536 18.7395 15.8395C18.0576 16.6254 17.1955 17.0995 16.153 17.2619C16.1136 18.1671 15.7706 18.9331 15.1241 19.5599C14.4768 20.1866 13.6927 20.5 12.7719 20.5C12.1475 20.5 11.6337 20.3843 11.2304 20.1529C10.827 19.9207 10.4167 19.5696 9.99938 19.0995C9.57797 19.5704 9.16271 19.9215 8.75362 20.1529C8.34453 20.3843 7.83562 20.5 7.22691 20.5ZM10.6155 3.85018V17.1523C10.6155 17.749 10.825 18.2536 11.2439 18.666C11.6629 19.0776 12.1755 19.2834 12.7817 19.2834C13.36 19.2834 13.8529 19.0821 14.2604 18.6794C14.6695 18.2767 14.8921 17.7944 14.9282 17.2326C14.3236 17.179 13.7626 17.0073 13.245 16.7175C12.7275 16.4285 12.2933 16.0363 11.9426 15.5411C11.8317 15.3974 11.7894 15.2464 11.8157 15.0881C11.8419 14.9298 11.929 14.8015 12.0769 14.7033C12.2223 14.5936 12.3784 14.5518 12.5451 14.5778C12.7111 14.6038 12.8458 14.6899 12.9493 14.836C13.2335 15.2444 13.595 15.5569 14.0336 15.7737C14.4723 15.9905 14.9442 16.0989 15.4494 16.0989C16.3169 16.0989 17.0472 15.8058 17.6403 15.2196C18.2334 14.6334 18.53 13.9117 18.53 13.0543C18.53 12.8489 18.5053 12.6431 18.456 12.4369C18.4068 12.2307 18.3373 12.0306 18.2478 11.8365C17.8987 12.102 17.5035 12.309 17.0624 12.4576C16.6213 12.6062 16.1625 12.6801 15.686 12.6793C15.5119 12.6793 15.3657 12.6208 15.2474 12.5039C15.1291 12.387 15.0699 12.2421 15.0699 12.0691C15.0699 11.8962 15.1291 11.7517 15.2474 11.6356C15.3657 11.5195 15.5119 11.4615 15.686 11.4615C16.5535 11.4615 17.2838 11.1684 17.8769 10.5822C18.47 9.99603 18.7666 9.27428 18.7666 8.41695C18.7666 7.58397 18.4778 6.87764 17.9003 6.29797C17.3228 5.71829 16.6164 5.40978 15.7809 5.37244C15.587 5.75401 15.3262 6.08526 14.9985 6.36616C14.6699 6.64869 14.2982 6.87115 13.8833 7.03352C13.7281 7.09279 13.5744 7.08751 13.4225 7.01769C13.2705 6.94787 13.169 6.83421 13.1181 6.6767C13.0622 6.52407 13.0655 6.36982 13.128 6.21394C13.1904 6.05725 13.307 5.9517 13.4779 5.89731C13.9125 5.74874 14.2628 5.48813 14.529 5.11548C14.7951 4.74121 14.9282 4.31538 14.9282 3.838C14.9282 3.24777 14.7196 2.74685 14.3023 2.33523C13.885 1.92361 13.3744 1.7178 12.7706 1.7178C12.1668 1.7178 11.6567 1.92402 11.2402 2.33645C10.8237 2.74888 10.6155 3.25427 10.6155 3.85018ZM9.38328 17.151V3.85018C9.38328 3.25346 9.17462 2.74928 8.75732 2.33767C8.34001 1.92524 7.82946 1.71902 7.22568 1.71902C6.6219 1.71902 6.11176 1.92524 5.69527 2.33767C5.27879 2.7501 5.07054 3.25386 5.07054 3.84896C5.07054 4.31416 5.20239 4.73471 5.46608 5.11061C5.72978 5.48569 6.0789 5.74752 6.51346 5.89609C6.6679 5.95049 6.78578 6.05197 6.86711 6.20054C6.94843 6.34911 6.9624 6.50134 6.909 6.65722C6.84575 6.81391 6.73485 6.92635 6.5763 6.99455C6.4194 7.06275 6.25552 7.06721 6.08465 7.00795C5.66899 6.84557 5.29727 6.62759 4.9695 6.35399C4.64174 6.08039 4.38092 5.7528 4.18705 5.37122C3.37133 5.40694 2.67472 5.71789 2.09722 6.30406C1.52055 6.89104 1.23221 7.59736 1.23221 8.42303C1.23221 9.2755 1.52876 9.99481 2.12187 10.581C2.71497 11.1672 3.44485 11.4602 4.3115 11.4602C4.48648 11.4602 4.63311 11.5187 4.7514 11.6356C4.86969 11.7525 4.92884 11.8974 4.92884 12.0704C4.92884 12.2433 4.86969 12.3878 4.7514 12.5039C4.63311 12.62 4.48689 12.678 4.31274 12.678C3.83628 12.678 3.37749 12.6038 2.93636 12.4552C2.49523 12.3066 2.1001 12.1 1.75097 11.8353C1.66225 12.0302 1.59284 12.2307 1.54273 12.4369C1.49262 12.6431 1.46797 12.8485 1.46879 13.0531C1.46879 13.9105 1.76535 14.6322 2.35845 15.2184C2.95155 15.8046 3.68184 16.0976 4.54932 16.0976C5.05945 16.0976 5.53139 15.988 5.96513 15.7688C6.39887 15.5496 6.76031 15.2383 7.04947 14.8348C7.15298 14.6886 7.2877 14.6026 7.45364 14.5766C7.61958 14.5506 7.77566 14.5884 7.92188 14.6899C8.0681 14.7913 8.15436 14.9225 8.18064 15.0832C8.20693 15.244 8.16545 15.3962 8.05619 15.5399C7.68981 16.0351 7.24663 16.4289 6.72663 16.7212C6.20664 17.0126 5.64434 17.1851 5.03974 17.2387C5.07588 17.8005 5.30343 18.2816 5.72238 18.6818C6.14134 19.0821 6.63956 19.2822 7.21705 19.2822C7.8233 19.2822 8.3359 19.0764 8.75485 18.6648C9.1738 18.2523 9.38328 17.7478 9.38328 17.151Z" fill="#6600CC"/>
</svg>
