<svg width="32" height="32" viewBox="0 0 32 32" fill="none" xmlns="http://www.w3.org/2000/svg">
<path d="M17.0121 1.8075L20.3771 9.4825C20.5037 9.77134 20.7055 10.0209 20.9614 10.2052C21.2173 10.3894 21.518 10.5016 21.8321 10.53L30.0296 11.265C30.9571 11.4 31.3271 12.5375 30.6546 13.1925L24.4796 18.38C23.9796 18.8 23.7521 19.46 23.8896 20.0975L25.6846 28.5C25.8421 29.4225 24.8746 30.1275 24.0446 29.69L16.8896 25.5C16.6197 25.3416 16.3125 25.2581 15.9996 25.2581C15.6867 25.2581 15.3795 25.3416 15.1096 25.5L7.9546 29.6875C7.1271 30.1225 6.1571 29.42 6.3146 28.4975L8.1096 20.095C8.2446 19.4575 8.0196 18.7975 7.5196 18.3775L1.3421 13.195C0.672096 12.5425 1.0421 11.4025 1.9671 11.2675L10.1646 10.5325C10.4787 10.5041 10.7794 10.3919 11.0353 10.2077C11.2912 10.0234 11.493 9.77384 11.6196 9.485L14.9846 1.81C15.4021 0.97 16.5971 0.97 17.0121 1.8075Z" fill="#BAB8BD"/>
<path d="M16.7671 9.94262L16.1971 4.28762C16.1746 3.97262 16.1096 3.43262 16.6146 3.43262C17.0146 3.43262 17.2321 4.26512 17.2321 4.26512L18.9421 8.80512C19.5871 10.5326 19.3221 11.1251 18.6996 11.4751C17.9846 11.8751 16.9296 11.5626 16.7671 9.94262Z" fill="#BAB8BD"/>
<path d="M23.8201 17.8777L28.7251 14.0502C28.9676 13.8477 29.4051 13.5252 29.0551 13.1577C28.7776 12.8677 28.0276 13.2852 28.0276 13.2852L23.7351 14.9627C22.4551 15.4052 21.6051 16.0602 21.5301 16.8852C21.4326 17.9852 22.4201 18.8327 23.8201 17.8777Z" fill="#BAB8BD"/>
</svg>
