<svg width="24" height="24" viewBox="0 0 24 24" fill="none" xmlns="http://www.w3.org/2000/svg">
<path d="M17.7294 13.0766C17.4196 15.55 15.7295 16.5384 14.9996 17.2558C14.2686 17.9754 14.3995 18.1187 14.4486 19.1739C14.4568 19.3045 14.437 19.4353 14.3905 19.5582C14.344 19.6812 14.2716 19.7937 14.178 19.8889C14.0844 19.984 13.9714 20.0598 13.8461 20.1115C13.7207 20.1632 13.5857 20.1897 13.4492 20.1895H10.5492C10.4128 20.1895 10.2778 20.1629 10.1524 20.1112C10.0271 20.0594 9.91415 19.9837 9.82047 19.8886C9.72678 19.7935 9.65435 19.681 9.60763 19.5582C9.5609 19.4353 9.54086 19.3045 9.54874 19.1739C9.54874 18.1385 9.64912 17.898 8.99885 17.2558C8.16966 16.461 6.21886 15.3388 6.21886 12.2524C6.21388 11.4858 6.37463 10.7265 6.69097 10.0224C7.00732 9.3183 7.47239 8.68465 8.05689 8.16139C8.64139 7.63813 9.33263 7.23661 10.087 6.98215C10.8415 6.72769 11.6427 6.6258 12.4402 6.6829C13.2378 6.74 14.0143 6.95486 14.7209 7.31393C15.4275 7.673 16.0489 8.16849 16.5458 8.76918C17.0427 9.36987 17.4044 10.0627 17.6081 10.8041C17.8119 11.5454 17.8531 12.3192 17.7294 13.0766Z" stroke="#6600CC" stroke-width="1.56879" stroke-linecap="round" stroke-linejoin="round"/>
<path d="M10.3192 20.1322V21.7135C10.3192 22.1455 10.5702 22.5 10.8789 22.5H13.1189C13.4298 22.5 13.6797 22.1444 13.6797 21.7135V20.1322M11.1484 9.1088C10.5042 9.10907 9.88647 9.35459 9.43104 9.79135C8.97561 10.2281 8.71976 10.8204 8.71976 11.4379M19.999 12.4639H22M17.9849 6.1762L19.4044 4.81554M19.076 17.7936L20.4954 19.1532M11.9995 2.5V4.05101M4.62397 4.81449L6.0336 6.1762M3.53292 19.1532L4.94256 17.7936M3.99989 12.4639H2" stroke="#6600CC" stroke-width="1.56879" stroke-linecap="round" stroke-linejoin="round"/>
</svg>
